<?xml version="1.0"?>
<svg xmlns="http://www.w3.org/2000/svg" id="Capa_1" enable-background="new 0 0 512 512" height="512px" viewBox="0 0 512 512" width="512px" class=""><g><g><g><g><g><g><g><g><g><g><circle cx="256" cy="256" fill="#ff7045" r="256" data-original="#FF7045" class="active-path" data-old_color="#ff7045" style="fill:#00F6FF"/></g></g></g></g></g></g></g></g><path d="m512 256c0-6.726-.26-13.391-.769-19.986l-114.1-114.1-119.824 118.779-111.192 187.479 83.755 83.756c2.038.048 4.081.072 6.13.072 141.385 0 256-114.615 256-256z" fill="#de4726" data-original="#DE4726" class="" data-old_color="#de4726" style="fill:#22C0CE"/><g><path d="m422.31 183.827c-.607-49.652-41.174-90.235-90.826-90.862-30.997-.391-58.526 14.547-75.485 37.711-16.959-23.164-44.489-38.102-75.487-37.711-49.651.627-90.217 41.211-90.823 90.863-.251 20.524 6.219 39.525 17.346 54.943 18.986 26.307 31.162 56.909 36.805 88.858l4.708 65.612c5.749 32.547 34.031 56.272 67.083 56.272h14.99v-110.527c0-14.017 11.363-25.379 25.379-25.379 14.017 0 25.379 11.363 25.379 25.379v110.528h14.99c33.051 0 61.334-23.725 67.083-56.272l4.708-65.612c5.643-31.948 17.818-62.55 36.804-88.857 11.127-15.419 17.597-34.421 17.346-54.946z" fill="#fff" data-original="#FFF" class=""/></g><g><path d="m255.986 313.607h.014c14.017 0 25.379 11.363 25.379 25.379v110.528h14.99c33.051 0 61.333-23.725 67.083-56.272l4.708-65.612c5.643-31.948 17.818-62.55 36.804-88.857 11.128-15.418 17.598-34.421 17.347-54.945-.607-49.652-41.174-90.235-90.826-90.862-30.997-.391-58.526 14.547-75.484 37.711z" fill="#e9edf5" data-original="#E9EDF5" class=""/></g><g><circle cx="372.855" cy="260.216" fill="#64e1dc" r="82.86" data-original="#64E1DC" class=""/></g><g><path d="m372.855 177.357c-.027 0-.053.002-.081.002v165.715c.027 0 .053.002.081.002 45.762 0 82.86-37.097 82.86-82.86 0-45.762-37.098-82.859-82.86-82.859z" fill="#1cadb5" data-original="#1CADB5" class="" style="fill:#1CADB5"/></g><g><path d="m425.843 239.956h-32.728v-32.727h-40.52v32.727h-32.727v40.52h32.727v32.728h40.52v-32.728h32.728z" fill="#fff" data-original="#FFF" class=""/></g><g><path d="m393.115 239.956v-32.727h-20.34v105.975h20.34v-32.728h32.728v-40.52z" fill="#e9edf5" data-original="#E9EDF5" class=""/></g></g></g> </svg>
